<svg xmlns:xlink="http://www.w3.org/1999/xlink" xmlns="http://www.w3.org/2000/svg" fill-opacity="1" color-rendering="auto" color-interpolation="auto" text-rendering="auto" stroke="black" stroke-linecap="square" stroke-miterlimit="10" shape-rendering="auto" stroke-opacity="1" fill="black" stroke-dasharray="none" font-weight="normal" stroke-width="1" font-family="'Dialog'" font-style="normal" stroke-linejoin="miter" font-size="12" stroke-dashoffset="0" image-rendering="auto" width="320" height="140"><rect id="backgroundrect" width="100%" height="100%" x="0" y="0" fill="none" stroke="none" class="" style=""/>
  <!--Unicode Character 'SHARK' (U+1F988)-->
  <defs id="genericDefs"/>
  
<g class="currentLayer" style=""><title>Layer 1</title><g id="svg_1" class="">
    <g id="svg_2">
      <path d="M320.2031,129.6563 Q320.2031,137.3906 314.4375,137.3906 Q306.4219,137.3906 285.0469,113.625 Q278.2969,106.1719 267.4688,94.9219 L221.0625,104.625 Q221.4844,105.0469 242.7188,117.5625 Q263.3906,129.6563 266.2031,135 Q266.9062,136.2656 266.7656,138.0937 Q266.625,138.2344 266.625,138.2344 Q263.9531,140.2031 258.75,140.2031 Q241.4531,140.2031 186.8906,124.875 Q164.3906,118.5469 164.1094,118.5469 Q164.25,118.5469 154.9688,120.65629999999999 Q144.5625,123.0469 135.5625,123.0469 Q124.1719,123.0469 105.75,118.96870000000001 Q104.9062,118.8281 97.7344,116.71870000000001 Q91.6875,114.8906 90.4219,114.8906 Q89.8594,114.8906 81.8438,117.9844 Q50.4844,130.0781 39.7969,130.0781 Q33.4688,130.0781 33.4688,123.75 Q33.4688,112.3594 47.8125,100.5469 Q49.6406,99 51.4688,97.1719 L51.3281,96.46870000000001 Q46.8281,94.3594 38.3906,89.15629999999999 Q36,85.9219 30.9375,79.4531 Q30.5156,79.03129999999999 20.5312,72 Q0,57.65629999999999 0,44.578100000000006 Q0,35.859399999999994 7.875,32.625 Q10.406199999999998,31.640600000000006 23.0625,29.671899999999994 Q41.4844,26.859399999999994 68.9062,26.859399999999994 Q78.8906,26.859399999999994 94.5,28.265600000000006 Q116.1562,30.234399999999994 120.09379999999999,30.515600000000006 Q124.1719,24.046899999999994 137.3906,12.656299999999987 Q151.7344,0 157.2188,0 Q162.9844,0 165.6562,7.453100000000006 Q166.0781,8.718700000000013 168.1875,19.6875 Q169.0312,27.140600000000006 172.9688,40.78129999999999 Q173.8125,42.609399999999994 197.6484,49.992200000000025 Q221.4844,57.375 225.7031,57.375 Q225.7031,57.375 237.6562,50.0625 Q238.7812,54.140600000000006 241.5938,60.890600000000006 Q244.6875,65.6719 262.8281,65.6719 Q267.6094,58.640600000000006 283.2188,43.3125 Q299.8125,26.859399999999994 305.5781,24.609399999999994 Q306.9844,24.046899999999994 309.5156,24.046899999999994 Q318.5156,24.046899999999994 318.5156,30.9375 Q318.5156,36.140600000000006 310.5703,53.507799999999975 Q302.625,70.875 302.625,78.0469 Q302.625,85.3594 311.4141,104.0625 Q320.2031,122.7656 320.2031,129.6563 zM313.1719,129.9375 L313.1719,128.5313 Q313.1719,126.5625 304.0312,106.59370000000001 Q294.8906,86.625 294.8906,78.0469 Q294.8906,70.03129999999999 302.4141,53.226600000000026 Q309.9375,36.421899999999994 309.9375,33.328100000000006 Q309.9375,31.921899999999994 309.375,31.359399999999994 L308.1094,31.359399999999994 Q299.8125,36.28129999999999 273.9375,63.984399999999994 Q265.3594,73.125 264.0938,73.125 Q259.4531,73.125 250.4531,71.08589999999998 Q241.4531,69.0469 237.6562,67.0781 Q235.5469,65.9531 233.5781,61.875 Q229.0781,65.53129999999999 227.9531,65.53129999999999 Q222.75,65.53129999999999 196.875,57.65629999999999 Q170.5781,49.640600000000006 168.4688,46.96870000000001 Q164.6719,42.1875 161.7188,24.890600000000006 Q158.9062,8.718700000000013 156.7969,7.453100000000006 Q149.3438,9.5625 138.375,20.531299999999987 Q129.5156,29.671899999999994 123.75,38.671899999999994 Q86.7656,34.59370000000001 67.5,34.59370000000001 Q16.1719,34.59370000000001 10.2656,39.65629999999999 Q7.3125,42.1875 7.3125,45 Q7.3125,54.84370000000001 27,67.5 Q31.0781,69.75 36.4219,73.40629999999999 Q37.5469,75.7969 40.429700000000004,80.0156 Q43.3125,84.2344 52.3125,89.15629999999999 Q61.3125,94.0781 64.4062,97.59370000000001 Q58.078100000000006,102.375 51.75,107.15629999999999 Q44.5781,112.78129999999999 41.0625,118.6875 Q39.6562,121.0781 39.6562,122.0625 Q39.6562,123.0469 40.5,123.46870000000001 L42.1875,123.46870000000001 Q47.3906,123.46870000000001 68.0625,115.10160000000002 Q88.7344,106.7344 90,106.7344 Q92.5312,106.7344 102.7969,109.6875 Q114.75,113.2031 116.8594,113.625 Q125.4375,115.3125 135.2812,115.3125 Q147.375,115.3125 159.3281,111.9375 Q164.8125,110.3906 164.5312,110.3906 Q165.0938,110.3906 184.3594,115.875 L234.2812,129.9375 Q250.3125,134.2969 259.0312,134.8594 Q247.3594,126.7031 229.2188,117.5625 Q213.75,109.8281 198.2812,102.09370000000001 L198.9844,101.3906 L268.3125,87.1875 Q274.2188,90.7031 292.3594,110.53129999999999 Q309.0938,128.9531 313.1719,129.9375 zM61.5938,46.265600000000006 Q61.5938,50.484399999999994 57.796899999999994,50.484399999999994 Q53.4375,50.484399999999994 53.4375,46.265600000000006 Q53.4375,41.90629999999999 57.796899999999994,41.90629999999999 Q61.5938,41.90629999999999 61.5938,46.265600000000006 zM81.1406,66.65629999999999 Q70.5938,67.9219 60.046899999999994,69.1875 Q46.5469,71.71870000000001 41.3438,77.4844 Q40.5,76.3594 40.5,75.09370000000001 L40.5,67.21870000000001 Q42.4688,68.0625 46.2656,70.03129999999999 Q46.4062,69.8906 48.6562,65.25 Q50.3438,66.2344 53.5781,68.0625 Q54.5625,66.65629999999999 56.390600000000006,63.984399999999994 Q57.6562,64.5469 59.3438,66.375 Q60.890600000000006,65.53129999999999 61.734399999999994,63.984399999999994 Q62.296899999999994,63.984399999999994 65.1094,65.9531 Q65.8125,64.96870000000001 67.5,63.140600000000006 Q68.7656,63.984399999999994 71.1562,65.6719 L73.2656,63.5625 Q76.6406,65.53129999999999 76.3594,65.53129999999999 Q76.7812,65.53129999999999 77.3438,65.17970000000003 Q77.9062,64.8281 78.3281,64.8281 Q79.3125,64.8281 81.1406,66.65629999999999 zM57.0938,45.984399999999994 L57.0938,44.15629999999999 Q56.5312,43.59370000000001 55.9688,43.59370000000001 L55.546899999999994,43.59370000000001 L55.125,45.84370000000001 L55.6875,46.125 L56.109399999999994,46.125 Q56.25,46.125 57.0938,45.984399999999994 z" stroke="none" id="svg_3"/>
    </g>
  </g></g></svg>